<svg width="320" height="240" viewBox="0 0 320 240" fill="none" xmlns="http://www.w3.org/2000/svg">
  <rect width="320" height="240" rx="32" fill="#F8E7AA"/>
  <circle cx="232" cy="70" r="36" fill="#FFC94A"/>
  <path d="M0 160C44 132 90 126 132 142C174 158 222 185 320 148V240H0V160Z" fill="#A5CF7A"/>
  <path d="M0 182C48 156 90 158 144 174C198 190 260 210 320 186V240H0V182Z" fill="#77A95B"/>
  <path d="M0 204C54 182 112 188 160 202C208 216 260 226 320 214V240H0V204Z" fill="#4E7E41"/>
  <path d="M90 84C107.673 84 122 69.6731 122 52C122 34.3269 107.673 20 90 20C72.3269 20 58 34.3269 58 52C58 69.6731 72.3269 84 90 84Z" fill="#FFF7DA"/>
  <path d="M70 90H140C148.837 90 156 97.1634 156 106C156 114.837 148.837 122 140 122H70C61.1634 122 54 114.837 54 106C54 97.1634 61.1634 90 70 90Z" fill="#FFFDF5"/>
</svg>
